<svg xmlns="http://www.w3.org/2000/svg" xml:space="preserve" width="482.799" height="491.785" viewBox="0 0 127.74 130.118"><path d="M92.512 132.903c-2.192-.492-2.29-.581-21.564-19.812-10.57-10.547-19.515-19.263-19.923-19.415-.55-.206-.957-.185-1.587.082-.767.324-16.086 15.73-16.708 16.802-.137.237-.34 1.86-.45 3.606-.241 3.8-.87 6.024-2.352 8.317-2.875 4.448-7.652 7.171-12.548 7.154-4.146-.014-7.35-1.398-10.332-4.463-2.769-2.846-3.942-5.877-3.955-10.215-.01-3.397.29-4.474 2.34-8.436l1.354-2.616.068-37.627.07-37.628-.824-1.031c-4.65-5.83-3.992-14.875 1.481-20.368 3.176-3.187 6.72-4.518 11.375-4.272 6.873.363 12.158 4.691 14.185 11.617l.595 2.033 15.638 15.745c8.6 8.66 15.966 15.87 16.369 16.024 1.39.528 2.182-.122 7.108-5.836A3047.31 3047.31 0 0 1 83.628 30.16c3.847-4.402 6.386-7.54 6.824-8.431.553-1.127.74-2.006.902-4.25.328-4.543 1.678-7.613 4.626-10.518 2.983-2.94 6.724-4.259 11.3-3.98 5.452.33 9.87 3.192 12.419 8.04 1.253 2.386 1.784 4.46 1.784 6.969 0 6.326-4.124 11.97-10.355 14.168-.625.22-2.361.573-3.858.783-1.497.21-3.056.554-3.464.766-.408.21-2.64 2.505-4.96 5.098-2.32 2.594-7.82 8.68-12.221 13.524-6.292 6.924-8.004 8.959-8.004 9.513 0 .58 2.677 3.397 14.883 15.667l14.883 14.96 7.264 11.378c3.996 6.257 9.027 14.073 11.18 17.37 3.482 5.33 3.913 6.115 3.913 7.112 0 2.237-1.833 3.917-4.877 4.47-1.526.276-32.16.372-33.355.104zm14.266-9.59c.483-.453.682-.913.682-1.574 0-.864-.461-1.399-6.18-7.164-3.398-3.426-6.374-6.525-6.614-6.884-.71-1.068-.54-1.97.622-3.313 1.318-1.523 1.533-2.29.909-3.243-.815-1.244-70.15-70.391-71.047-70.855-1.688-.873-3.515-.008-4.502 2.13-.466 1.01-.489 2.503-.494 32.724-.004 19.109.092 31.926.242 32.32.425 1.118 1.337 1.763 2.493 1.763 1.03 0 1.215-.164 8.219-7.301 3.94-4.015 7.329-7.635 7.53-8.043.21-.424.293-1.033.196-1.42-.106-.422-3.091-3.471-7.957-8.126-4.876-4.664-7.89-7.742-8.06-8.232-.476-1.364.112-2.139 4.184-5.515 4.061-3.367 4.883-3.77 6.447-3.158.55.216 12.517 12.006 33.618 33.125 18.2 18.216 33.135 32.958 33.602 33.168.568.255 1.58.355 3.133.309 2.012-.06 2.379-.148 2.977-.71z" style="fill:#fff;fill-opacity:1" transform="translate(-3.003 -2.944)"/></svg>